{
	"asset":{
		"generator":"Khronos glTF Blender I/O v3.5.30",
		"version":"2.0"
	},
	"scene":0,
	"scenes":[
		{
			"name":"Scene",
			"nodes":[
				2
			]
		}
	],
	"nodes":[
		{
			"mesh":0,
			"name":"Object_2"
		},
		{
			"children":[
				0
			],
			"name":"ca2f93657a3f4546bd2a5aa2ae44050a.obj.cleaner"
		},
		{
			"children":[
				1
			],
			"name":"Sketchfab_model"
		}
	],
	"materials":[
		{
			"doubleSided":true,
			"name":"Scene_-_Root",
			"normalTexture":{
				"index":0
			},
			"pbrMetallicRoughness":{
				"baseColorTexture":{
					"index":1
				},
				"metallicFactor":0,
				"roughnessFactor":0.6000000238418579
			}
		}
	],
	"meshes":[
		{
			"name":"Object_0",
			"primitives":[
				{
					"attributes":{
						"POSITION":0,
						"TEXCOORD_0":1,
						"NORMAL":2
					},
					"indices":3,
					"material":0
				}
			]
		}
	],
	"textures":[
		{
			"sampler":0,
			"source":0
		},
		{
			"sampler":0,
			"source":1
		}
	],
	"images":[
		{
			"mimeType":"image/jpeg",
			"name":"Image_1",
			"uri":"textures/Image_1.jpg"
		},
		{
			"mimeType":"image/jpeg",
			"name":"Image_0",
			"uri":"textures/Image_0.jpg"
		}
	],
	"accessors":[
		{
			"bufferView":0,
			"componentType":5126,
			"count":2131,
			"max":[
				2.749927520751953,
				5.39998722076416,
				2.2545244693756104
			],
			"min":[
				-1.9562082290649414,
				-1.2647618055343628,
				-1.8540395498275757
			],
			"type":"VEC3"
		},
		{
			"bufferView":1,
			"componentType":5126,
			"count":2131,
			"type":"VEC2"
		},
		{
			"bufferView":2,
			"componentType":5126,
			"count":2131,
			"type":"VEC3"
		},
		{
			"bufferView":3,
			"componentType":5123,
			"count":12012,
			"type":"SCALAR"
		}
	],
	"bufferViews":[
		{
			"buffer":0,
			"byteLength":25572,
			"byteOffset":0,
			"target":34962
		},
		{
			"buffer":0,
			"byteLength":17048,
			"byteOffset":25572,
			"target":34962
		},
		{
			"buffer":0,
			"byteLength":25572,
			"byteOffset":42620,
			"target":34962
		},
		{
			"buffer":0,
			"byteLength":24024,
			"byteOffset":68192,
			"target":34963
		}
	],
	"samplers":[
		{
			"magFilter":9729,
			"minFilter":9987
		}
	],
	"buffers":[
		{
			"byteLength":92216,
			"uri":"moai.bin"
		}
	]
}
